# xmcd
#
# Track frame offsets:
#	150
#	19182
#	34457
#	51295
#	68447
#	88727
#	109267
#	124532
#	136532
#	155474
#	173071
#	196791
#	212581
#	233041
#	248696
#
# Disc length: 3573 seconds
#
# Revision: 3
# Processed by: cddbd v1.5.2PL0 Copyright (c) Steve Scherf et al.
# Submitted via: audiograbber 1.83.01
#
DISCID=be0df30f
DTITLE=Sound Choice - SC7591
DYEAR=2002
DGENRE=Karaoke
TTITLE0=Hank Williams Jr. - All My Rowdy Friends Have Settled Down
TTITLE1=Hank Williams Jr. - Whiskey Bent And Hell Bound
TTITLE2=Conway Twitty - I'd Love To Lay You Down
TTITLE3=Eddie Rabbitt - Drivin' My Life Away
TTITLE4=Alabama - Why Lady Why
TTITLE5=Mac Davis - It's Hard To Be Humble
TTITLE6=Willie Nelson - My Heroes Have Always Been Cowboys
TTITLE7=Waylon Jennings - Theme From The Dukes Of Hazzard (Good Ol' Boys)
TTITLE8=Juice Newton - Sweetest Thing (I've Ever Known)
TTITLE9=Ronnie Milsap - No Getting Over Me (There's) 
TTITLE10=Alabama - Roll On (Eighteen Wheeler)
TTITLE11=Conway Twitty - Slow Hand
TTITLE12=Hank Williams Jr. - A Country Boy Can Survive
TTITLE13=Juice Newton - Love's Been A Little Bit Hard On Me
TTITLE14=Ronnie Milsap - I Wouldn't Have Missed It For The World
EXTD=
EXTT0=
EXTT1=
EXTT2=
EXTT3=
EXTT4=
EXTT5=
EXTT6=
EXTT7=
EXTT8=
EXTT9=
EXTT10=
EXTT11=
EXTT12=
EXTT13=
EXTT14=
PLAYORDER=
